<?xml version="1.0" encoding="UTF-8" standalone="no"?>
<!-- Generator: Adobe Illustrator 19.0.0, SVG Export Plug-In . SVG Version: 6.00 Build 0)  -->

<svg
   version="1.1"
   x="0px"
   y="0px"
   viewBox="0 0 800 800"
   xml:space="preserve"
   id="svg35"
   sodipodi:docname="favicon.svg"
   width="800"
   height="800"
   inkscape:version="1.3.2 (091e20ef0f, 2023-11-25)"
   inkscape:export-filename="apple-touch-icon.png"
   inkscape:export-xdpi="21.6"
   inkscape:export-ydpi="21.6"
   xmlns:inkscape="http://www.inkscape.org/namespaces/inkscape"
   xmlns:sodipodi="http://sodipodi.sourceforge.net/DTD/sodipodi-0.dtd"
   xmlns="http://www.w3.org/2000/svg"
   xmlns:svg="http://www.w3.org/2000/svg"><defs
   id="defs35">
	
	
	
	
	
	
	
	
	
	
	
	
	
	
	
	
	
	
	
	
	
	
	
	
	

				
				
				
				
				
			
				
				
				
				
				
			</defs><sodipodi:namedview
   id="namedview35"
   pagecolor="#ffffff"
   bordercolor="#000000"
   borderopacity="0.25"
   inkscape:showpageshadow="2"
   inkscape:pageopacity="0.0"
   inkscape:pagecheckerboard="0"
   inkscape:deskcolor="#d1d1d1"
   inkscape:zoom="0.5"
   inkscape:cx="666"
   inkscape:cy="441"
   inkscape:window-width="2560"
   inkscape:window-height="1371"
   inkscape:window-x="0"
   inkscape:window-y="0"
   inkscape:window-maximized="1"
   inkscape:current-layer="XMLID_305_" />
<style
   type="text/css"
   id="style1">
	.st0{display:none;}
	.st1{display:inline;fill:#FFFFFF;}
	.st2{display:inline;}
	.st3{fill:none;stroke:#4C5159;stroke-width:2;stroke-miterlimit:10;}
	.st4{display:inline;fill:none;stroke:#4C5159;stroke-width:2;stroke-miterlimit:10;}
	.st5{display:inline;fill:none;stroke:#4C5159;stroke-width:2;stroke-miterlimit:10;stroke-dasharray:2;}
	.st6{fill:none;stroke:#4C5159;stroke-width:2;stroke-miterlimit:10;stroke-dasharray:2;}
	.st7{fill:#4C5159;}
	.st8{font-family:'Montserrat-Bold';}
	.st9{font-size:7px;}
	.st10{display:inline;fill:#74E2F0;}
	.st11{display:inline;fill:#FBDA73;}
	.st12{display:inline;fill:#F08E70;}
</style>


<g
   id="XMLID_309_"
   transform="translate(-0.2,0.2)">
		<g
   id="XMLID_305_">
			
			
			
			
			
			
		<rect
   style="fill:#ff8000;fill-opacity:1;stroke:none;stroke-width:20;stroke-linecap:round;stroke-dasharray:none;stroke-opacity:1"
   id="rect64"
   width="800"
   height="800"
   x="0.2"
   y="-0.2"
   sodipodi:insensitive="true" /><path
   id="path61"
   style="display:inline;fill:#ffffff;fill-opacity:1;stroke:none;stroke-width:16.6904;stroke-linecap:round;stroke-dasharray:none;stroke-opacity:1"
   d="m 316.91913,134.63836 c -28.57889,0 -57.15788,18.57964 -57.15788,55.75447 v 0.0325 c -39.23318,-2.76017 -71.59518,30.73024 -70.07583,68.54482 -0.0226,0.2233 -0.0438,0.44646 -0.0637,0.66987 0.0676,11.20388 3.00393,22.21727 8.54816,32.05563 -19.19659,0.67224 -38.1788,8.26022 -52.72431,22.80573 -28.3416,28.34155 -32.90133,78.16104 0,111.06236 4.45456,4.45459 9.37663,8.2736 14.64034,11.48263 -47.32383,42.15061 -19.46295,106.03123 26.18672,122.44929 0.0212,56.73088 56.22153,82.83104 101.33403,64.07935 2.09733,54.48233 86.47046,56.56426 86.47046,-2.04134 V 190.39369 c 0,-37.17485 -28.57905,-55.75449 -57.15788,-55.75449 z m 166.56165,0 c -28.57885,0 -57.1579,18.57964 -57.1579,55.75447 v 431.14016 c 0,58.60563 84.37315,56.52367 86.47046,2.04135 45.11251,18.75169 101.31282,-7.34846 101.33405,-64.07937 45.64967,-16.41805 73.51054,-80.29868 26.18672,-122.44929 5.26372,-3.209 10.18579,-7.02802 14.64032,-11.4826 32.90132,-32.90132 28.3416,-82.72082 0,-111.06237 -14.5455,-14.54552 -33.5277,-22.13356 -52.72429,-22.80574 5.54422,-9.83836 8.48118,-20.85174 8.54815,-32.05563 -0.02,-0.22341 -0.0413,-0.4467 -0.0637,-0.66986 1.51941,-37.81458 -30.84266,-71.305 -70.07583,-68.54482 v -0.0325 c 0,-37.17484 -28.57901,-55.75447 -57.1579,-55.75447 z" /><path
   id="path41-3"
   style="display:inline;fill:none;fill-opacity:1;stroke:#000000;stroke-width:17.2485;stroke-linecap:round;stroke-dasharray:none;stroke-opacity:1"
   d="m 524.72254,627.23969 c 41.32165,11.01911 89.41128,-16.97318 89.41128,-67.77293 m -52.25865,-3.26618 c 69.03978,34.51991 142.47525,-62.24851 78.38796,-119.215 M 540.64511,190.39012 c 0,-74.34993 -114.31578,-74.34993 -114.31578,0 v 431.1338 c 0,59.34287 86.55337,56.50202 86.55337,0 0,-8.16542 -1.63309,-16.33084 -6.53235,-22.86318 m 97.62773,-313.32218 c 27.54996,-56.63069 -33.49501,-119.93083 -94.36155,-85.14995 m 89.81953,248.22856 c 21.23008,0 40.82707,-8.16543 55.52481,-22.86317 32.90143,-32.90142 28.34164,-82.70797 0,-111.04962 -30.50076,-30.50073 -80.54911,-30.5005 -111.04961,0 M 275.67747,627.23969 C 234.35583,638.2588 186.2662,610.26651 186.2662,559.46676 m 52.25863,-3.26618 C 169.48507,590.72049 96.04957,493.95207 160.13688,436.98558 M 259.7549,190.39012 c 0,-74.34993 114.31579,-74.34993 114.31579,0 v 431.1338 c 0,59.34287 -86.55338,56.50202 -86.55338,0 0,-8.16542 1.63309,-16.33084 6.53234,-22.86318 M 196.42193,285.33856 c -27.54996,-56.63069 33.49499,-119.93083 94.36156,-85.14995 m -89.81954,248.22856 c -21.23008,0 -40.82707,-8.16543 -55.52482,-22.86317 -32.90142,-32.90142 -28.34164,-82.70797 0,-111.04962 30.50075,-30.50073 80.54912,-30.5005 111.04961,0" /></g>
		
		
	</g>


</svg>
